<svg xmlns="http://www.w3.org/2000/svg" xmlns:xlink="http://www.w3.org/1999/xlink" width="93.032" height="93.032" viewBox="0 0 93.032 93.032">
  <defs>
    <filter id="Subtraction_1" x="0" y="0" width="93.032" height="93.032" filterUnits="userSpaceOnUse">
      <feOffset dx="15" dy="15" input="SourceAlpha"/>
      <feGaussianBlur stdDeviation="10" result="blur"/>
      <feFlood flood-opacity="0.161"/>
      <feComposite operator="in" in2="blur"/>
      <feComposite in="SourceGraphic"/>
    </filter>
  </defs>
  <g transform="matrix(1, 0, 0, 1, 0, 0)" filter="url(#Subtraction_1)">
    <path id="Subtraction_1-2" data-name="Subtraction 1" d="M-7480.483,33.032a16.414,16.414,0,0,1-6.429-1.3,16.449,16.449,0,0,1-5.25-3.539,16.451,16.451,0,0,1-3.54-5.25,16.413,16.413,0,0,1-1.3-6.429,16.412,16.412,0,0,1,1.3-6.428,16.452,16.452,0,0,1,3.54-5.25,16.449,16.449,0,0,1,5.25-3.54,16.416,16.416,0,0,1,6.429-1.3,16.412,16.412,0,0,1,6.429,1.3,16.462,16.462,0,0,1,5.249,3.54,16.464,16.464,0,0,1,3.54,5.25,16.412,16.412,0,0,1,1.3,6.428,16.413,16.413,0,0,1-1.3,6.429,16.463,16.463,0,0,1-3.54,5.25,16.452,16.452,0,0,1-5.249,3.539A16.414,16.414,0,0,1-7480.483,33.032Zm-.153-15.457h0l7.162,7.161,1.21-1.211-7.161-7.161,7.161-7.161-1.21-1.211-7.162,7.162-7.161-7.162-1.21,1.211,7.161,7.161-7.161,7.161,1.21,1.211,7.161-7.161Z" transform="translate(7512 15)" fill="#fff"/>
  </g>
</svg>
