<svg id="Group_8" data-name="Group 8" xmlns="http://www.w3.org/2000/svg" width="20" height="20" viewBox="0 0 20 20">
  <rect id="Rectangle_118" data-name="Rectangle 118" width="20" height="20" fill="none"/>
  <g id="Seecurity" transform="translate(1)">
    <path id="Path_49" data-name="Path 49" d="M9,10a2.5,2.5,0,1,1-2.571,2.5A2.544,2.544,0,0,1,9,10ZM9,2.5A2.544,2.544,0,0,0,6.429,5h5.143A2.544,2.544,0,0,0,9,2.5ZM15.429,20H2.571A2.544,2.544,0,0,1,0,17.5V7.5A2.544,2.544,0,0,1,2.571,5H3.857A5.088,5.088,0,0,1,9,0a5.088,5.088,0,0,1,5.143,5h1.286A2.544,2.544,0,0,1,18,7.5v10A2.544,2.544,0,0,1,15.429,20Z" fill="#2c3d63" fill-rule="evenodd"/>
  </g>
</svg>
