<svg id="Settings" xmlns="http://www.w3.org/2000/svg" width="20.25" height="20" viewBox="0 0 20.25 20">
  <rect id="Rectangle_193" data-name="Rectangle 193" width="20" height="20" fill="none"/>
  <path id="Path_104" data-name="Path 104" d="M269.5,12.5a2.5,2.5,0,1,0-2.533-2.5A2.524,2.524,0,0,0,269.5,12.5Zm-5.192-8a7.171,7.171,0,0,1,3.039-1.625L268.359,0h2.533L271.9,2.875A8.88,8.88,0,0,1,274.944,4.5l3.039-.625,1.266,2.25-2.026,2.25A7.037,7.037,0,0,1,277.35,10c0,.5-.127,1.125-.127,1.625l2.026,2.25-1.266,2.25-3.039-.625a7.171,7.171,0,0,1-3.039,1.625L270.891,20h-2.533l-1.013-2.875a8.88,8.88,0,0,1-3.039-1.625l-3.039.625L260,13.875l2.026-2.25A7.037,7.037,0,0,1,261.9,10c0-.5.127-1.125.127-1.625L260,6.125l1.266-2.25Z" transform="translate(-259)" fill="#b7b7b7" fill-rule="evenodd"/>
</svg>
