<svg id="Invoice" xmlns="http://www.w3.org/2000/svg" width="20" height="20" viewBox="0 0 20 20">
  <path id="script" d="M1636,3038h-8a4,4,0,0,0-4,4v10h-3a1,1,0,0,0-1,1v1a4,4,0,0,0,4,4h8a4,4,0,0,0,4-4v-10h3a1,1,0,0,0,1-1v-1A4,4,0,0,0,1636,3038Zm-6,18h-6a2,2,0,0,1-2-2h7a1,1,0,0,1,1,1Zm4-2a2,2,0,0,1-2,2v-2a2,2,0,0,0-2-2h-4v-10a2,2,0,0,1,2-2h6Zm2-12v-2a2,2,0,0,1,2,2Zm-8,0h4a1,1,0,0,1,0,2h-4a1,1,0,0,1,0-2Zm5,5a1,1,0,0,1-1,1h-4a1,1,0,0,1,0-2h4A1,1,0,0,1,1633,3047Z" transform="translate(-1620 -3038)" fill="#2c3d63"/>
</svg>
