<svg xmlns="http://www.w3.org/2000/svg" width="15.576" height="15.576" viewBox="0 0 15.576 15.576">
  <g id="Union_4" data-name="Union 4" transform="translate(0 7.788) rotate(-45)" fill="none">
    <path d="M7.342,11.014H0V3.672a3.671,3.671,0,1,1,7.342,0,3.671,3.671,0,0,1,0,7.342Z" stroke="none"/>
    <path d="M 7.342184543609619 10.01409816741943 C 8.815084457397461 10.01409816741943 10.01338386535645 8.815587997436523 10.01338386535645 7.342418193817139 C 10.01338386535645 5.869768142700195 8.815084457397461 4.671678066253662 7.342184543609619 4.671678066253662 L 6.342184543609619 4.671678066253662 L 6.342184543609619 3.671678066253662 C 6.342184543609619 2.198508024215698 5.144094467163086 0.999998152256012 3.671444416046143 0.999998152256012 C 2.198404312133789 0.999998152256012 1.000004291534424 2.198508024215698 1.000004291534424 3.671678066253662 L 1.000004291534424 10.01409816741943 L 7.342184543609619 10.01409816741943 M 7.342184543609619 11.01409816741943 L 4.316863851272501e-06 11.01409816741943 L 4.316863851272501e-06 3.671678066253662 C 4.316863851272501e-06 1.643948078155518 1.643714308738708 -1.869964648903988e-06 3.671444416046143 -1.869964648903988e-06 C 5.698464393615723 -1.869964648903988e-06 7.342184543609619 1.643948078155518 7.342184543609619 3.671678066253662 C 9.369674682617188 3.671678066253662 11.01338386535645 5.31492805480957 11.01338386535645 7.342418193817139 C 11.01338386535645 9.370147705078125 9.369674682617188 11.01409816741943 7.342184543609619 11.01409816741943 Z" stroke="none" fill="#ff6f5e"/>
  </g>
</svg>
